<svg xmlns="http://www.w3.org/2000/svg" xmlns:xlink="http://www.w3.org/1999/xlink" height="46" viewBox="0 0 71 46" width="71"><svg height="20" viewBox="0 0 20 20" width="20" x="5" y="5"><title>Instagram Copy 9_Color</title><path d="M10 0C7.286 0 6.945.012 5.879.06 4.813.11 4.086.278 3.45.525A4.897 4.897 0 0 0 1.68 1.678 4.909 4.909 0 0 0 .525 3.45C.277 4.085.108 4.812.06 5.876.013 6.943 0 7.284 0 10c0 2.716.012 3.056.06 4.122.05 1.065.218 1.792.465 2.427a4.9 4.9 0 0 0 1.153 1.772 4.897 4.897 0 0 0 1.771 1.154c.636.247 1.363.416 2.428.465 1.066.048 1.407.06 4.123.06s3.056-.012 4.122-.06c1.065-.05 1.792-.218 2.429-.465a4.893 4.893 0 0 0 1.77-1.154 4.909 4.909 0 0 0 1.154-1.771c.246-.636.415-1.363.465-2.428.047-1.066.06-1.406.06-4.122s-.013-3.057-.06-4.123c-.05-1.065-.22-1.792-.465-2.427a4.908 4.908 0 0 0-1.154-1.772A4.887 4.887 0 0 0 16.55.525C15.912.278 15.185.109 14.12.06 13.055.012 12.716 0 9.999 0H10zm-.896 1.802H10c2.67 0 2.986.01 4.04.058.976.044 1.505.207 1.857.344.467.181.8.398 1.15.748.35.35.566.683.748 1.15.137.352.3.881.344 1.856.048 1.054.059 1.371.059 4.04 0 2.668-.01 2.985-.059 4.04-.044.974-.207 1.503-.344 1.856a3.092 3.092 0 0 1-.748 1.148c-.35.35-.683.567-1.15.748-.352.138-.881.3-1.856.345-1.054.048-1.371.058-4.041.058-2.67 0-2.987-.01-4.04-.058-.976-.045-1.505-.208-1.858-.345a3.097 3.097 0 0 1-1.15-.748 3.1 3.1 0 0 1-.748-1.15c-.137-.351-.3-.88-.345-1.856-.047-1.054-.057-1.37-.057-4.04 0-2.671.01-2.986.057-4.04.045-.975.208-1.505.345-1.857.181-.467.398-.8.748-1.15.35-.35.683-.567 1.15-.748.353-.138.882-.3 1.857-.345.923-.042 1.28-.054 3.144-.056v.002zm6.235 1.66a1.2 1.2 0 1 0 0 2.401 1.2 1.2 0 0 0 0-2.4zM10 4.865a5.136 5.136 0 1 0 0 10.27 5.136 5.136 0 0 0 0-10.27zm0 1.802a3.333 3.333 0 1 1 0 6.666 3.333 3.333 0 0 1 0-6.666z" fill="#7F7873" fill-rule="evenodd" opacity=".5"/></svg><svg height="18" viewBox="0 0 15 18" width="15" x="30" y="5"><title>Pinterest Copy 9_Color</title><path d="M3.69 17.638s-.186-2.215.04-3.17c.204-.862 1.322-5.49 1.322-5.49s-.337-.662-.337-1.64c0-1.537.908-2.683 2.04-2.683.961 0 1.426.708 1.426 1.556 0 .948-.616 2.365-.934 3.678-.265 1.1.564 1.996 1.67 1.996 2.004 0 3.544-2.07 3.544-5.059 0-2.645-1.939-4.494-4.709-4.494-3.208 0-5.09 2.358-5.09 4.794 0 .95.371 1.968.838 2.521.092.11.105.205.078.318-.085.348-.276 1.099-.313 1.252-.05.202-.164.245-.378.149C1.48 10.723.6 8.705.6 7.086.6 3.6 3.184.4 8.05.4 11.96.4 15 3.131 15 6.78c0 3.807-2.45 6.872-5.85 6.872-1.143 0-2.218-.583-2.585-1.27l-.703 2.626c-.254.96-.942 2.162-1.4 2.896 1.054.321-.772-.266-.772-.266z" fill="#7F7873" fill-rule="evenodd" opacity=".5"/></svg><svg height="11" viewBox="0 0 17 11" width="17" x="5" y="30"><title>VK Copy 9_Color</title><path d="M9.224 10.16s.303-.034.458-.2c.143-.154.138-.443.138-.443s-.02-1.349.606-1.548c.616-.196 1.408 1.304 2.247 1.881.635.437 1.116.341 1.116.341l2.244-.031s1.174-.073.617-.997c-.046-.076-.324-.684-1.668-1.933-1.407-1.308-1.218-1.096.476-3.359 1.032-1.378 1.445-2.219 1.316-2.578-.123-.344-.882-.253-.882-.253l-2.526.016s-.187-.026-.326.057c-.136.082-.224.272-.224.272s-.399 1.066-.932 1.973c-1.125 1.912-1.575 2.014-1.759 1.895-.428-.277-.321-1.113-.321-1.706 0-1.854.281-2.627-.546-2.827C8.983.653 8.78.61 8.078.602c-.9-.009-1.663.003-2.096.215-.287.14-.51.455-.374.473.167.022.545.102.746.375.259.353.25 1.145.25 1.145s.148 2.183-.348 2.454c-.34.186-.807-.194-1.81-1.93-.514-.888-.902-1.871-.902-1.871s-.074-.184-.208-.282c-.162-.12-.388-.157-.388-.157l-2.4.016s-.361.01-.493.167c-.118.14-.01.428-.01.428s1.88 4.404 4.008 6.624c1.952 2.034 4.167 1.9 4.167 1.9h1.004z" fill="#7F7873" fill-rule="evenodd" opacity=".5"/></svg><svg height="13" viewBox="0 0 16 13" width="16" x="50" y="5"><title>Twitter Copy 9_Color</title><path d="M7.58 3.405l.033.554-.549-.068C5.065 3.63 3.32 2.75 1.836 1.27L1.112.535l-.187.542c-.396 1.21-.143 2.486.68 3.345.44.474.341.542-.417.26-.263-.09-.494-.158-.516-.125-.077.08.187 1.108.396 1.514.285.565.867 1.12 1.504 1.447l.538.26-.637.01c-.615 0-.637.012-.57.25.219.734 1.087 1.513 2.053 1.852l.681.238-.593.361a6.096 6.096 0 0 1-2.943.836c-.495.012-.901.057-.901.09 0 .114 1.34.746 2.12.995 2.339.734 5.118.418 7.204-.836 1.483-.893 2.966-2.667 3.658-4.384.373-.915.747-2.587.747-3.39 0-.52.032-.587.648-1.209.362-.361.702-.757.768-.87.11-.214.1-.214-.46-.022-.934.339-1.066.294-.605-.215.34-.361.747-1.017.747-1.209 0-.034-.165.023-.352.125-.197.113-.637.282-.966.384l-.593.192-.538-.373c-.297-.203-.714-.43-.934-.497-.56-.158-1.417-.136-1.922.045-1.373.508-2.24 1.82-2.142 3.254z" fill="#7F7873" fill-rule="evenodd" opacity=".5"/></svg><svg height="16" viewBox="0 0 8 16" width="8" x="50" y="23"><title>Facebook Copy 9_Color</title><path d="M4.788 15.6V8h2.13L7.2 5.38H4.788l.003-1.311c0-.683.066-1.05 1.062-1.05h1.332V.4h-2.13c-2.56 0-3.46 1.27-3.46 3.407V5.38H0V8h1.595v7.6h3.193z" fill="#7F7873" fill-rule="evenodd" opacity=".5"/></svg><svg height="9" viewBox="0 0 9 9" width="9" x="27" y="30"><title>Rectangle Copy</title><path d="M0 4.243L4.244 0l4.243 4.243-4.243 4.242z" fill="#CBBC9D" fill-rule="evenodd"/></svg></svg>